<svg class="svg-icon" style="width: 1em; height: 1em;vertical-align: middle;fill: #ffffff;overflow: hidden;" viewBox="0 0 1024 1024" version="1.1" xmlns="http://www.w3.org/2000/svg"><path d="M512 85.333333C530.346667 85.333333 547.84 91.306667 561.92 101.12 673.28 181.333333 784.64 261.12 815.36 354.56 846.08 448 810.666667 554.666667 746.666667 661.333333 853.333333 384 554.666667 320 554.666667 320L554.666667 768C554.666667 862.293333 469.333333 938.666667 362.666667 938.666667 256 938.666667 170.666667 862.293333 170.666667 768 170.666667 673.706667 256 597.333333 362.666667 597.333333 385.28 597.333333 406.613333 600.746667 426.666667 607.146667L426.666667 170.666667C426.666667 123.733333 465.066667 85.333333 512 85.333333Z"  /></svg>